<svg width="24" height="25" viewBox="0 0 24 25" fill="none" xmlns="http://www.w3.org/2000/svg">
<path d="M14.121 10.9801C13.9335 10.7926 13.6792 10.6873 13.414 10.6873C13.1488 10.6873 12.8945 10.7926 12.707 10.9801L12 11.6861C11.8155 11.8771 11.5948 12.0295 11.3508 12.1343C11.1068 12.2391 10.8444 12.2943 10.5788 12.2966C10.3132 12.2989 10.0499 12.2483 9.8041 12.1478C9.55831 12.0472 9.335 11.8987 9.14722 11.7109C8.95943 11.5231 8.81092 11.2998 8.71036 11.054C8.6098 10.8082 8.5592 10.5449 8.5615 10.2793C8.56381 10.0137 8.61898 9.75131 8.7238 9.5073C8.82862 9.26329 8.98098 9.0426 9.17201 8.85811L14.802 3.22611C16.1349 2.92294 17.5295 3.04771 18.7874 3.58269C20.0454 4.11766 21.1026 5.03561 21.8089 6.206C22.5151 7.3764 22.8344 8.73966 22.7213 10.1019C22.6083 11.4642 22.0686 12.7562 21.179 13.7941L19.071 15.9291L14.121 10.9791V10.9801ZM3.16101 4.96811C4.19577 3.93349 5.54923 3.27809 7.00257 3.10788C8.45591 2.93766 9.92418 3.26259 11.17 4.03011L7.75701 7.44411C7.0178 8.18184 6.59644 9.17941 6.58294 10.2237C6.56945 11.2679 6.96489 12.2761 7.68478 13.0326C8.40468 13.7892 9.39192 14.2343 10.4356 14.2727C11.4792 14.311 12.4965 13.9398 13.27 13.2381L13.414 13.1011L17.657 17.3431L13.414 21.5861C13.0389 21.9611 12.5303 22.1717 12 22.1717C11.4697 22.1717 10.9611 21.9611 10.586 21.5861L3.16001 14.1601C1.94114 12.9411 1.25639 11.2879 1.25639 9.56411C1.25639 7.8403 1.94114 6.18708 3.16001 4.96811H3.16101Z" fill="#9CBBEF"/>
</svg>
