<svg width="24" height="25" viewBox="0 0 24 25" fill="none" xmlns="http://www.w3.org/2000/svg">
<path d="M21 8.4999C21.5304 8.4999 22.0391 8.71061 22.4142 9.08569C22.7893 9.46076 23 9.96947 23 10.4999V14.4999C23 15.0303 22.7893 15.539 22.4142 15.9141C22.0391 16.2892 21.5304 16.4999 21 16.4999H19.938C19.6942 18.4332 18.7533 20.2111 17.2917 21.4999C15.8302 22.7887 13.9486 23.4999 12 23.4999V21.4999C13.5913 21.4999 15.1174 20.8678 16.2426 19.7425C17.3679 18.6173 18 17.0912 18 15.4999V9.4999C18 7.9086 17.3679 6.38248 16.2426 5.25726C15.1174 4.13204 13.5913 3.4999 12 3.4999C10.4087 3.4999 8.88258 4.13204 7.75736 5.25726C6.63214 6.38248 6 7.9086 6 9.4999V16.4999H3C2.46957 16.4999 1.96086 16.2892 1.58579 15.9141C1.21071 15.539 1 15.0303 1 14.4999V10.4999C1 9.96947 1.21071 9.46076 1.58579 9.08569C1.96086 8.71061 2.46957 8.4999 3 8.4999H4.062C4.30603 6.5668 5.24708 4.78917 6.70857 3.50058C8.17007 2.21198 10.0516 1.50098 12 1.50098C13.9484 1.50098 15.8299 2.21198 17.2914 3.50058C18.7529 4.78917 19.694 6.5668 19.938 8.4999H21ZM7.76 16.2849L8.82 14.5889C9.77308 15.1859 10.8754 15.5017 12 15.4999C13.1246 15.5017 14.2269 15.1859 15.18 14.5889L16.24 16.2849C14.9693 17.081 13.4995 17.5022 12 17.4999C10.5005 17.5022 9.03074 17.081 7.76 16.2849Z" fill="#9CBBEF"/>
</svg>
