<svg width="25" height="24" viewBox="0 0 25 24" fill="none" xmlns="http://www.w3.org/2000/svg">
<path d="M12.75 2C15.467 2 15.806 2.01 16.872 2.06C17.937 2.11 18.662 2.277 19.3 2.525C19.96 2.779 20.516 3.123 21.072 3.678C21.5805 4.1779 21.974 4.78259 22.225 5.45C22.472 6.087 22.64 6.813 22.69 7.878C22.737 8.944 22.75 9.283 22.75 12C22.75 14.717 22.74 15.056 22.69 16.122C22.64 17.187 22.472 17.912 22.225 18.55C21.9747 19.2178 21.5811 19.8226 21.072 20.322C20.572 20.8303 19.9673 21.2238 19.3 21.475C18.663 21.722 17.937 21.89 16.872 21.94C15.806 21.987 15.467 22 12.75 22C10.033 22 9.694 21.99 8.628 21.94C7.563 21.89 6.838 21.722 6.2 21.475C5.53233 21.2245 4.92753 20.8309 4.428 20.322C3.91941 19.8222 3.52593 19.2175 3.275 18.55C3.027 17.913 2.86 17.187 2.81 16.122C2.763 15.056 2.75 14.717 2.75 12C2.75 9.283 2.76 8.944 2.81 7.878C2.86 6.812 3.027 6.088 3.275 5.45C3.52524 4.78218 3.9188 4.17732 4.428 3.678C4.92767 3.16923 5.53243 2.77573 6.2 2.525C6.838 2.277 7.562 2.11 8.628 2.06C9.694 2.013 10.033 2 12.75 2ZM12.75 7C11.4239 7 10.1521 7.52678 9.21447 8.46447C8.27678 9.40215 7.75 10.6739 7.75 12C7.75 13.3261 8.27678 14.5979 9.21447 15.5355C10.1521 16.4732 11.4239 17 12.75 17C14.0761 17 15.3479 16.4732 16.2855 15.5355C17.2232 14.5979 17.75 13.3261 17.75 12C17.75 10.6739 17.2232 9.40215 16.2855 8.46447C15.3479 7.52678 14.0761 7 12.75 7V7ZM19.25 6.75C19.25 6.41848 19.1183 6.10054 18.8839 5.86612C18.6495 5.6317 18.3315 5.5 18 5.5C17.6685 5.5 17.3505 5.6317 17.1161 5.86612C16.8817 6.10054 16.75 6.41848 16.75 6.75C16.75 7.08152 16.8817 7.39946 17.1161 7.63388C17.3505 7.8683 17.6685 8 18 8C18.3315 8 18.6495 7.8683 18.8839 7.63388C19.1183 7.39946 19.25 7.08152 19.25 6.75ZM12.75 9C13.5456 9 14.3087 9.31607 14.8713 9.87868C15.4339 10.4413 15.75 11.2044 15.75 12C15.75 12.7956 15.4339 13.5587 14.8713 14.1213C14.3087 14.6839 13.5456 15 12.75 15C11.9544 15 11.1913 14.6839 10.6287 14.1213C10.0661 13.5587 9.75 12.7956 9.75 12C9.75 11.2044 10.0661 10.4413 10.6287 9.87868C11.1913 9.31607 11.9544 9 12.75 9V9Z" fill="#9CBBEF"/>
</svg>
