<svg width="17" height="17" viewBox="0 0 17 17" fill="none" xmlns="http://www.w3.org/2000/svg">
<path d="M2.75004 2.5H14.75C14.9269 2.5 15.0964 2.57024 15.2214 2.69526C15.3465 2.82029 15.4167 2.98986 15.4167 3.16667V13.8333C15.4167 14.0101 15.3465 14.1797 15.2214 14.3047C15.0964 14.4298 14.9269 14.5 14.75 14.5H2.75004C2.57323 14.5 2.40366 14.4298 2.27864 14.3047C2.15361 14.1797 2.08337 14.0101 2.08337 13.8333V3.16667C2.08337 2.98986 2.15361 2.82029 2.27864 2.69526C2.40366 2.57024 2.57323 2.5 2.75004 2.5V2.5ZM8.79004 8.28867L4.51537 4.65867L3.65204 5.67467L8.79871 10.0447L13.8527 5.67133L12.9807 4.66267L8.79071 8.28867H8.79004Z" fill="#9CBBEF"/>
</svg>
