<svg width="17" height="17" viewBox="0 0 17 17" fill="none" xmlns="http://www.w3.org/2000/svg">
<path d="M14.75 11.4467V13.804C14.7501 13.9728 14.6861 14.1353 14.5711 14.2588C14.456 14.3823 14.2984 14.4575 14.13 14.4693C13.8387 14.4893 13.6007 14.5 13.4167 14.5C7.52533 14.5 2.75 9.72467 2.75 3.83333C2.75 3.64933 2.76 3.41133 2.78067 3.12C2.79248 2.95163 2.86772 2.79401 2.9912 2.67894C3.11468 2.56387 3.27722 2.49992 3.446 2.5H5.80333C5.88603 2.49992 5.9658 2.53057 6.02715 2.58601C6.08851 2.64145 6.12706 2.71772 6.13533 2.8C6.15067 2.95333 6.16467 3.07533 6.178 3.168C6.31049 4.09262 6.582 4.99189 6.98333 5.83533C7.04667 5.96867 7.00533 6.128 6.88533 6.21333L5.44667 7.24133C6.3263 9.29097 7.9597 10.9244 10.0093 11.804L11.036 10.368C11.078 10.3093 11.1392 10.2673 11.209 10.2491C11.2788 10.2309 11.3528 10.2379 11.418 10.2687C12.2613 10.6692 13.1604 10.9401 14.0847 11.072C14.1773 11.0853 14.2993 11.1 14.4513 11.1147C14.5335 11.1231 14.6096 11.1617 14.6649 11.2231C14.7202 11.2844 14.7508 11.3641 14.7507 11.4467H14.75Z" fill="#9CBBEF"/>
</svg>
