<svg width="25" height="24" viewBox="0 0 25 24" fill="none" xmlns="http://www.w3.org/2000/svg">
<path d="M7.27702 14.514C7.27517 15.035 7.06731 15.5342 6.6988 15.9025C6.33028 16.2708 5.83104 16.4784 5.31002 16.48C4.78882 16.4784 4.28943 16.2707 3.92089 15.9021C3.55235 15.5336 3.3446 15.0342 3.34302 14.513C3.34302 13.43 4.22702 12.545 5.31002 12.545H7.27802V14.513L7.27702 14.514ZM8.26902 14.514C8.26902 13.431 9.15302 12.546 10.236 12.546C11.319 12.546 12.204 13.431 12.204 14.514V19.441C12.2024 19.9624 11.9946 20.4619 11.6258 20.8305C11.257 21.1991 10.7574 21.4067 10.236 21.408C9.71482 21.4064 9.21543 21.1987 8.84689 20.8301C8.47835 20.4616 8.2706 19.9622 8.26902 19.441V14.514ZM10.236 6.527C9.715 6.52516 9.21586 6.31729 8.84753 5.94878C8.47921 5.58027 8.2716 5.08102 8.27002 4.56C8.27002 3.477 9.15402 2.593 10.237 2.593C11.32 2.593 12.205 3.477 12.205 4.56V6.528H10.236V6.527ZM10.236 7.519C11.319 7.519 12.204 8.403 12.204 9.486C12.2027 10.0075 11.9949 10.5073 11.6261 10.8761C11.2574 11.2449 10.7576 11.4527 10.236 11.454H5.31002C4.78865 11.4524 4.28911 11.2445 3.92054 10.8758C3.55197 10.507 3.34434 10.0074 3.34302 9.486C3.34302 8.403 4.22702 7.519 5.31002 7.519H10.237H10.236ZM18.223 9.486C18.223 8.403 19.108 7.519 20.191 7.519C21.274 7.519 22.158 8.403 22.158 9.486C22.1567 10.0074 21.9491 10.507 21.5805 10.8758C21.2119 11.2445 20.7124 11.4524 20.191 11.454H18.223V9.486V9.486ZM17.231 9.486C17.2297 10.0074 17.0221 10.507 16.6535 10.8758C16.2849 11.2445 15.7854 11.4524 15.264 11.454C14.7425 11.4527 14.2427 11.2449 13.8739 10.8761C13.5051 10.5073 13.2973 10.0075 13.296 9.486V4.56C13.296 3.477 14.181 2.593 15.264 2.593C16.347 2.593 17.231 3.477 17.231 4.56V9.487V9.486ZM15.264 17.473C16.347 17.473 17.231 18.358 17.231 19.441C17.2294 19.9622 17.0217 20.4616 16.6531 20.8301C16.2846 21.1987 15.7852 21.4064 15.264 21.408C14.7426 21.4067 14.243 21.1991 13.8742 20.8305C13.5055 20.4619 13.2976 19.9624 13.296 19.441V17.473H15.264ZM15.264 16.481C14.7426 16.4797 14.243 16.2721 13.8742 15.9035C13.5055 15.5349 13.2976 15.0354 13.296 14.514C13.296 13.431 14.181 12.546 15.264 12.546H20.191C21.274 12.546 22.158 13.431 22.158 14.514C22.1564 15.0352 21.9487 15.5346 21.5801 15.9031C21.2116 16.2717 20.7122 16.4794 20.191 16.481H15.264V16.481Z" fill="#9CBBEF"/>
</svg>
