<svg width="25" height="24" viewBox="0 0 25 24" fill="none" xmlns="http://www.w3.org/2000/svg">
<path d="M22.9121 5.65599C22.1486 5.99368 21.339 6.21546 20.5101 6.31399C21.3838 5.79142 22.0378 4.969 22.3501 3.99999C21.5301 4.48799 20.6311 4.82999 19.6941 5.01499C19.0647 4.34157 18.2304 3.89495 17.321 3.74457C16.4116 3.59419 15.478 3.74848 14.6653 4.18344C13.8526 4.6184 13.2064 5.30967 12.8272 6.14978C12.4479 6.98989 12.3568 7.93177 12.5681 8.82899C10.9052 8.74564 9.27838 8.31351 7.79334 7.56065C6.30829 6.80779 4.99818 5.75104 3.94805 4.45899C3.57634 5.09744 3.38101 5.82321 3.38205 6.56199C3.38205 8.01199 4.12005 9.29299 5.24205 10.043C4.57806 10.0221 3.92869 9.84277 3.34805 9.51999V9.57199C3.34825 10.5377 3.68242 11.4736 4.2939 12.221C4.90538 12.9685 5.75653 13.4815 6.70305 13.673C6.08667 13.84 5.44036 13.8646 4.81305 13.745C5.07992 14.5762 5.60006 15.3032 6.30064 15.8241C7.00123 16.345 7.84718 16.6338 8.72005 16.65C7.85253 17.3313 6.85923 17.835 5.79693 18.1322C4.73464 18.4293 3.62418 18.5142 2.52905 18.382C4.44075 19.6114 6.66615 20.2641 8.93905 20.262C16.6321 20.262 20.8391 13.889 20.8391 8.36199C20.8391 8.18199 20.8341 7.99999 20.8261 7.82199C21.6449 7.23016 22.3517 6.49701 22.9131 5.65699L22.9121 5.65599Z" fill="#9CBBEF"/>
</svg>
